<svg xmlns="http://www.w3.org/2000/svg" viewBox="0 0 512 512" width="512" height="512">
  <defs>
    <linearGradient id="bgGrad" x1="0" y1="0" x2="1" y2="1">
      <stop offset="0%" stop-color="#0a0a12"/>
      <stop offset="100%" stop-color="#111122"/>
    </linearGradient>
    <linearGradient id="globeGrad" x1="0" y1="0" x2="1" y2="1">
      <stop offset="0%" stop-color="#1a6bff"/>
      <stop offset="100%" stop-color="#0a3d99"/>
    </linearGradient>
    <linearGradient id="accentGrad" x1="0" y1="0" x2="1" y2="0">
      <stop offset="0%" stop-color="#00d4aa"/>
      <stop offset="100%" stop-color="#00b894"/>
    </linearGradient>
    <linearGradient id="goldGrad" x1="0" y1="0" x2="1" y2="1">
      <stop offset="0%" stop-color="#ffd700"/>
      <stop offset="100%" stop-color="#ff8c00"/>
    </linearGradient>
  </defs>
  <rect width="512" height="512" fill="url(#bgGrad)"/>
  <circle cx="256" cy="220" r="100" fill="url(#globeGrad)" opacity="0.15"/>
  <circle cx="256" cy="220" r="100" fill="none" stroke="url(#accentGrad)" stroke-width="2" opacity="0.5"/>
  <circle cx="256" cy="220" r="90" fill="none" stroke="rgba(0,212,170,0.15)" stroke-width="1"/>
  <g transform="translate(256, 220)">
    <path d="M-70,-30 C-50,-50 20,-60 60,-40 C80,-30 85,-10 70,10 C50,40 -10,55 -50,40 C-75,30 -80,0 -70,-30Z" fill="url(#accentGrad)" opacity="0.25"/>
    <path d="M-20,-55 C0,-50 15,-35 10,-15 C5,5 -10,10 -25,5 C-40,0 -45,-25 -35,-45Z" fill="url(#accentGrad)" opacity="0.15"/>
    <path d="M30,10 C45,-5 65,-5 70,10 C75,30 60,45 40,45 C20,45 15,25 30,10Z" fill="url(#accentGrad)" opacity="0.2"/>
    <ellipse cx="0" cy="0" rx="80" ry="20" fill="none" stroke="rgba(255,255,255,0.08)" stroke-width="1"/>
    <ellipse cx="0" cy="0" rx="20" ry="80" fill="none" stroke="rgba(255,255,255,0.08)" stroke-width="1"/>
  </g>
  <g transform="translate(256, 220)">
    <line x1="-60" y1="-50" x2="60" y2="50" stroke="url(#accentGrad)" stroke-width="3" stroke-linecap="round" opacity="0.8"/>
    <line x1="60" y1="-50" x2="-60" y2="50" stroke="url(#accentGrad)" stroke-width="3" stroke-linecap="round" opacity="0.8"/>
    <circle cx="0" cy="0" r="8" fill="url(#goldGrad)"/>
    <circle cx="0" cy="0" r="4" fill="#fff" opacity="0.5"/>
  </g>
  <g transform="translate(256, 370)">
    <text x="0" y="0" text-anchor="middle" font-family="'Inter','Segoe UI',sans-serif" font-size="38" font-weight="800" fill="url(#accentGrad)" letter-spacing="6">EARTH ONLINE</text>
    <text x="0" y="28" text-anchor="middle" font-family="'Inter','Segoe UI',sans-serif" font-size="14" font-weight="500" fill="#666688" letter-spacing="8">地球在線</text>
    <rect x="156" y="42" width="200" height="2" rx="1" fill="url(#accentGrad)" opacity="0.3"/>
    <text x="0" y="62" text-anchor="middle" font-family="'Inter','Segoe UI',sans-serif" font-size="9" font-weight="500" fill="#444466" letter-spacing="4">GLOBAL MINING IDLE RPG</text>
  </g>
  <g transform="translate(256, 220)" opacity="0.15">
    <circle cx="-35" cy="-30" r="2" fill="#fff"/>
    <circle cx="40" cy="-35" r="1.5" fill="#fff"/>
    <circle cx="-45" cy="25" r="1.5" fill="#fff"/>
    <circle cx="50" cy="30" r="2" fill="#fff"/>
    <circle cx="-20" cy="-50" r="1" fill="#fff"/>
    <circle cx="30" cy="-55" r="1" fill="#fff"/>
  </g>
</svg>
